{"title":"Yogi.Bear.2010.BDRip.XVID.AC3.HQ.Hive-CM8","uid":6223997,"size":1612298491,"categoryP":"video","categoryS":"movies","magnet":"?xt=urn:btih:da8a1317d70c830a01d9ea93ef9489c880151feb&amp;dn=Yogi.Bear.2010.BDRip.XVID.AC3.HQ.Hive-CM8&amp;tr=udp%3A%2F%2Ftracker.openbittorrent.com%3A80&amp;tr=udp%3A%2F%2Fopen.demonii.com%3A1337&amp;tr=udp%3A%2F%2Ftracker.coppersurfer.tk%3A6969&amp;tr=udp%3A%2F%2Fexodus.desync.com%3A6969","seeders":0,"leechers":1,"uploader":"sceneline","files":6,"time":1299445090,"description":"-\nhttp:// www . torrentkit. com        \nhttp:// www .torrentkit. com       the fast  and The Hottest Private Tracker on the net\n\nPlease Seed back to make the speed Faster!!!\n\nand don't forget to visit      ...... www .torrentkit .com..........\n-[img]http://img402.imageshack.us/img402/8944/yogiy.jpg[/img]\n\n[color=blue][size=5][b]Yogi Bear 2010 BDRip XVID AC3 HQ Hive-CM8[/b][/size][/color]\n\n\n\n[b]Thx Hive\n\nCM8 Doing It Right The First Time :D\n\nSource Bluray\n\nVideo: 720x400 @bitrate 2200 2pass\nAudio: DTS to AC3 5.1 @448\nSample: yes included\nSubs: yes english in srt /subs[/b]\n\n\n[url]http://www.imdb.com/title/tt1302067/[/url]\n\n\nGeneral\nComplete name                    : Yogi.Bear.2010.BDRip.XVID.AC3.HQ.Hive-CM8.avi\nFormat                           : AVI\nFormat/Info                      : Audio Video Interleave\nFile size                        : 1.49 GiB\nDuration                         : 1h 20mn\nOverall bit rate                 : 2 658 Kbps\nWriting application              : Nandub v1.0rc2\nWriting library                  : Nandub build 1853/release\n\nVideo\nID                               : 0\nFormat                           : MPEG-4 Visual\nFormat profile                   : Advanced Simple@L5\nFormat settings, BVOP            : Yes\nFormat settings, QPel            : Yes\nFormat settings, GMC             : No warppoints\nFormat settings, Matrix          : Default (H.263)\nMuxing mode                      : Packed bitstream\nCodec ID                         : XVID\nCodec ID/Hint                    : XviD\nDuration                         : 1h 20mn\nBit rate                         : 2 200 Kbps\nWidth                            : 720 pixels\nHeight                           : 400 pixels\nDisplay aspect ratio             : 16:9\nFrame rate                       : 23.976 fps\nColor space                      : YUV\nChroma subsampling               : 4:2:0\nBit depth                        : 8 bits\nScan type                        : Progressive\nBits/(Pixel*Frame)               : 0.319\nStream size                      : 1.24 GiB (83%)\nWriting library                  : XviD 1.2.1 (UTC 2008-12-04)\n\nAudio\nID                               : 1\nFormat                           : AC-3\nFormat/Info                      : Audio Coding 3\nMode extension                   : CM (complete main)\nCodec ID                         : 2000\nDuration                         : 1h 20mn\nBit rate mode                    : Constant\nBit rate                         : 448 Kbps\nChannel(s)                       : 6 channels\nChannel positions                : Front: L C R, Side: L R, LFE\nSampling rate                    : 48.0 KHz\nBit depth                        : 16 bits\nVideo delay                      : 100ms\nStream size                      : 258 MiB (17%)\nAlignment                        : Split accross interleaves\nInterleave, duration             : 42 ms (1.00 video frame)\nInterleave, preload duration     : 500 ms\n\n\n\nDan Aykroyd ... Yogi Bear (voice)\nJustin Timberlake ... Boo Boo (voice)\nAnna Faris ... Rachel\nTom Cavanagh ... Ranger Smith\nT.J. Miller ... Ranger Jones\nNathan Corddry ... Chief of Staff\nAndrew Daly ... Mayor Brown\nJosh Robert Thompson ... Narrator (voice)\nDavid Stott ... Mayor's Tailor\nGreg Johnson ... Dirty Shopper\nChristy Quillam ... Stylist\n\n\n\nA documentary filmmaker travels to Jellystone Park to shoot a project and soon \ncrosses paths with Yogi Bear, his sidekick Boo-Boo, and Ranger Smith.\nJellystone Park is celebrating its 100 anniversary, however it may be for the last time, \nbecause attendance is down and Mayor Brown wants to close the park and sell the land. \nIf the park is closed, Yogi Bear and Boo Boo will lose their home. They join forces with \nRanger Smith to save Jellystone from closing forever. Yogi must really prove in this endeavor \nthat he is &quot;smarter than the average bear&quot;.\n\n\n\n\n[img]http://img26.imageshack.us/img26/5703/37897808.png[/img]\n[img]http://img219.imageshack.us/img219/5615/yoyog.png[/img]\n[img]http://img856.imageshack.us/img856/126/yoyoyo.png[/img]\n[img]http://img846.imageshack.us/img846/852/yoyoyoyo.png[/img]\n[img]http://img215.imageshack.us/img215/1904/yoyoyoyoyo.png[/img]\n[img]http://img689.imageshack.us/img689/7792/yoyoyoyoyoyo.png[/img]\n[img]http://img819.imageshack.us/img819/6001/yoyoyoyoyoyoyo.png[/img]\n[img]http://img43.imageshack.us/img43/7920/yoyoyoyoyoyoyoyo.png[/img]\n[img]http://img534.imageshack.us/img534/6789/yoyoyoyoyoyoyoyoyo.png[/img]\n\n\n\n\n\n\nGreetz\n\niNK,LUSi,,MAGNET,CLASSiFiED,THC,LEGi0N,T0XiC,IMAGiNE,ViSiON,WBZ,FLAWL3SS,NOVA\nVik,Rapeseed,D2U,SAFC,goldadvance,MEMORY100,KaN1vE,Unevano,Pinnz,Wayne,Mr Hive\nand all P2P groups \nGreat Work Guys :D\n\n\n&lt;a class=&quot;__cf_email__&quot; href=&quot;/cdn-cgi/l/email-protection&quot; data-cfemail=&quot;de9d93e69eb6abadb6b3bfb7b2f0bdb1b3&quot;&gt;[email&amp;#160;protected]&lt;/a&gt;&lt;script cf-hash='f9e31' type=&quot;text/javascript&quot;&gt;\n/* &lt;![CDATA[ */!function(){try{var t=&quot;currentScript&quot;in document?document.currentScript:function(){for(var t=document.getElementsByTagName(&quot;script&quot;),e=t.length;e--;)if(t[e].getAttribute(&quot;cf-hash&quot;))return t[e]}();if(t&amp;&amp;t.previousSibling){var e,r,n,i,c=t.previousSibling,a=c.getAttribute(&quot;data-cfemail&quot;);if(a){for(e=&quot;&quot;,r=parseInt(a.substr(0,2),16),n=2;a.length-n;n+=2)i=parseInt(a.substr(n,2),16)^r,e+=String.fromCharCode(i);e=document.createTextNode(e),c.parentNode.replaceChild(e,c)}}}catch(u){}}();/* ]]&gt; */&lt;/script&gt;","torrent":{"xt":"urn:btih:da8a1317d70c830a01d9ea93ef9489c880151feb","amp;dn":"Yogi.Bear.2010.BDRip.XVID.AC3.HQ.Hive-CM8","amp;tr":["udp%3A%2F%2Ftracker.openbittorrent.com%3A80","udp%3A%2F%2Fopen.demonii.com%3A1337","udp%3A%2F%2Ftracker.coppersurfer.tk%3A6969","udp%3A%2F%2Fexodus.desync.com%3A6969"],"infoHash":"da8a1317d70c830a01d9ea93ef9489c880151feb","infoHashBuffer":{"type":"Buffer","data":[218,138,19,23,215,12,131,10,1,217,234,147,239,148,137,200,128,21,31,235]},"announce":[],"urlList":[]}}